<svg width="78" height="68" viewBox="0 0 78 68" fill="none" xmlns="http://www.w3.org/2000/svg">
<path d="M64.5356 5.79846H66.9897L67.3876 5.99614L67.9846 6.19381L68.9131 6.65505L69.4438 7.0504L69.8417 7.31397L70.3723 7.77521L70.9029 8.10466L71.1682 8.36823H71.3009L71.4336 7.44575L71.6989 6.85273H73.357L73.6887 7.11629L73.755 7.37986L73.8213 9.42249L73.954 9.48838L74.0203 9.75195L74.0866 11.531L74.2193 11.5969L74.2856 11.7946V13.969L74.3519 14.1667L74.5509 14.3644V17.7907L74.3519 17.9884L74.2856 26.4884L74.0866 26.6861L74.0203 27.4768L73.556 28.3333L73.4234 28.6628L72.8264 29.783L72.4948 30.1124L72.3621 30.3101H72.2295L72.0968 30.7713L70.9693 31.8915L70.505 32.0892L70.107 32.4186L69.6427 32.6822L69.4438 32.8799L68.7142 33.0775L67.8519 33.4729L67.454 33.6047L66.9234 34H66.658L66.5917 33.7364L64.005 33.8023L63.806 34H63.3417L63.0101 33.8023L62.5458 33.6047L61.5509 33.0775L61.1529 32.7481L60.755 32.5504L60.357 32.2209L60.0254 32.0892L58.9642 31.0349L58.7652 30.6395L58.3672 30.1124L58.1019 29.5853V28.3333L58.1682 28.2016L58.6325 28.0039L58.7652 27.938H60.0917L60.4897 28.2675V28.3992L60.8213 28.4651L61.3519 28.9264L61.9489 29.5194L62.5458 29.9806L63.5407 30.5078L64.8672 30.5737L64.9999 30.6395V30.7713H65.5305L65.8621 30.5737L67.1887 30.5078L68.2499 29.9806L68.9795 29.3876L69.7754 28.5969L70.1734 28.1357L70.4387 27.8721H70.5713L70.704 27.6085L71.0356 27.0155L71.1682 26.4225L71.3009 26.093L71.3672 21.283L70.8366 21.7442L69.4438 23.1279L67.9182 23.8527L67.6529 23.9845L67.1887 24.0504L67.1223 24.1822L66.5917 24.2481H64.005L63.806 24.0504L63.2754 23.9845L63.0101 23.7868L62.6785 23.6551L62.2142 23.2597L61.8825 23.1279L61.4182 22.7326L61.0866 22.6008L58.9642 20.4923L58.7652 20.0969L58.3672 19.6357L58.2346 19.3062L57.8366 18.7791L57.306 17.6589L57.0407 16.9341L56.9744 15.9457L56.7754 15.6822V13.8372L56.9744 13.5737L57.0407 12.5853L57.2397 12.1899L57.3723 11.6628L57.9029 10.6085L58.2346 10.0155L58.4999 9.68606H58.6325L58.9642 9.02714L59.2958 8.6318L59.8264 8.17056L60.0917 7.90699L60.556 7.64342L60.8876 7.37986L61.3519 7.11629L62.2142 6.58916L63.0101 6.2597L63.408 6.12792L63.5407 6.06203L64.4029 5.93024L64.5356 5.79846ZM65.3315 8.69769L65.1989 8.82947L64.0713 8.96125L63.6734 9.15893L63.2091 9.29071L62.8111 9.62017L62.3468 9.81784L62.0152 10.1473L61.4846 10.4109L61.0203 10.8721L60.8876 11.2675L60.6887 11.4651V11.5969H60.556L60.0254 12.6512L59.9591 12.7171V16.4729L60.556 17.593L60.954 18.1202L61.1529 18.4496L61.7499 19.1085L62.4131 19.7675L63.0764 20.1628L64.3366 20.8217L64.8672 21.0853H66.3927L66.5917 21.0194L66.658 20.8876L67.454 20.8217L68.5152 20.2946L69.1785 19.7675L69.3774 19.5698L69.7754 19.3721L69.908 19.0426L70.5713 18.3837L70.8366 18.0543L71.0356 17.6589L71.3672 17.2636L71.6325 16.6047V14.1008L71.4336 13.7054L71.2346 13.1124L70.7703 12.1899L70.1734 11.531L69.9744 11.1357L69.2448 10.345L68.8468 10.0155L68.4489 9.81784L68.0509 9.48838L66.9897 8.96125L66.1274 8.82947L65.7958 8.69769H65.3315Z" fill="#5E5FF3"/>
<path d="M10.4795 5.79846H13.9285L14.3265 5.99614L14.9234 6.19381L15.852 6.65505L16.3826 7.0504L16.7805 7.31397L17.2448 7.70931L17.6428 8.17056L17.7754 8.23645V8.36823H17.9081V8.50001H18.0407V8.6318H18.1734V8.76358H18.306L18.8367 9.42249L19.0356 9.75195L19.3009 10.0814L20.0969 11.6628L20.2295 12.3876H20.3622L20.4285 12.7171L20.4948 14.1667L20.6275 14.2326L20.6938 14.6279V15.1551L20.4948 15.3527L20.4285 16.8023L20.2295 16.9341L20.1632 17.7907L19.9642 18.0543L19.8316 18.3837L19.3009 19.438L19.0356 19.7675H18.903L18.7703 20.2287L16.5816 22.4031L16.2499 22.5349L15.852 22.8644L14.7907 23.3915L14.0611 23.5892L13.9948 23.6551L12.8009 23.7868L12.6683 23.9186L11.6071 23.9845L11.0765 23.8527L11.0101 23.7868L10.1479 23.6551L9.9489 23.5233L9.21931 23.3256L8.75502 23.1938L8.42339 22.9961L7.82645 22.469L7.42849 22.2713L6.96421 21.8101L6.76523 21.4147L6.36727 20.9535L6.10196 20.8217H5.90298V21.2171L6.03563 21.3489L6.10196 21.7442V23.6551L6.36727 23.7868V32.6822L5.96931 33.4729L5.17339 34.2636H4.7091L4.17849 33.8023L3.4489 33.0775L3.38257 31.7597L3.18359 31.4961V13.0465L3.38257 12.783L3.4489 12.0582L3.64788 11.5969L3.84686 11.0039L4.24482 10.345L4.7091 9.68606L5.17339 9.15893L6.49992 7.8411H6.63257L6.76523 7.57753L7.36216 7.11629L8.35706 6.58916L9.15298 6.2597L9.55094 6.12792L10.2805 5.93024L10.4795 5.79846ZM11.0101 8.43412L10.8111 8.5659L9.9489 8.69769L9.28563 9.02714L8.62237 9.42249L7.09686 10.938V11.0698H6.96421L6.43359 12.124L6.23461 12.8488L6.10196 13.0465V16.4729L6.63257 17.5271L6.96421 18.1202L7.56114 18.7791L7.76012 19.1744L8.02543 19.5039L8.75502 19.9651L9.02033 20.0969V20.2287L9.35196 20.3605H9.55094V20.4923L10.2142 20.624H10.3469L10.4132 20.8217L11.4081 20.8876V21.0194L11.8724 21.0853L12.204 20.9535L12.2703 20.8876L13.0662 20.8217L13.3316 20.624L13.9948 20.4923L14.6581 20.1628L15.1887 19.8333L15.852 19.2403L16.1836 18.845L16.3826 18.4496L16.7805 17.8566L17.3111 16.8023L17.5101 16.3411L17.5765 15.7481L17.7754 15.3527V14.1008L17.5765 13.8372L17.5101 13.1124L17.3111 12.7171L17.1785 12.1899L16.6479 11.1357L15.9183 10.345L15.056 9.48838L14.7244 9.22482L13.1989 8.50001L13.1326 8.43412H11.0101Z" fill="#5E5FF3"/>
<path d="M22.4184 6.06201H23.6786L24.3419 6.39147L24.6735 6.65503L24.9388 7.11628L25.0051 7.57752L25.2041 7.77519L25.2704 15.4845L25.4031 15.6163L25.5357 16.8023L25.6684 16.9341L25.8674 17.6589L26.398 18.6473L26.7959 19.1744L27.0612 19.6357L27.5919 20.0969L27.9235 20.4264L29.051 21.0194L29.7143 21.1512L29.7806 21.2829H30.1123L30.3112 21.0853L30.9082 21.0194L31.3725 20.7558L32.0357 20.2946L32.4337 20.031L33.097 19.438L33.6276 18.845L33.8929 18.3178L33.9592 17.5271L34.1582 17.2636V9.35659L33.9592 9.09302L34.0255 8.69767L34.1582 8.56589L34.2245 6.98449L34.6225 6.52325L35.2857 6.1279L35.4184 6.06201H35.8827L36.5459 6.39147L36.8112 6.65503L36.8776 6.78682V8.10465L37.1429 8.23643V10.938L36.9439 11.1357L36.8776 17.593L36.6786 17.7248L36.6123 19.1744L36.4133 19.3062L36.347 19.8992L36.148 20.1628L36.0153 20.4922L35.551 20.9535L35.2194 21.3488L35.0868 21.4147L34.9541 21.8101L34.6888 22.1395L34.4235 22.4031H34.2908L34.1582 22.8643L33.4949 24.1163L33.2296 24.6434L33.0306 25.1046L32.8317 25.7636L32.4337 26.5543L32.3674 27.0155L32.1684 27.2791L32.0357 27.6085L31.7041 28.2015L31.2398 28.7287L30.8419 29.0581L30.7092 29.4535L28.5868 31.562L28.1888 31.7597L27.6582 32.155L27.1939 32.4186L26.9949 32.6163L26.2653 32.8139L25.9337 32.9457L25.4694 33.0775L25.4031 33.1434L24.7398 33.2093H23.9439L23.347 32.5504L23.0817 31.9574V30.969L23.5459 30.4419L23.7449 30.3101L24.4745 30.2442L24.7398 30.0465L25.5357 29.9806L26.597 29.4535L27.2602 28.9922L27.6582 28.7287L28.3215 28.1357L28.5868 27.8062L28.7857 27.4108L29.3164 26.8178L29.9133 25.6977L30.4439 24.6434L30.6429 24.1822L30.7092 24.0504H30.1123L29.648 24.2481H27.9235L27.7908 23.9845H27.1939L26.7959 23.655L26.4643 23.2597L26.0664 23.1279L25.0051 22.0736L24.8061 21.6783L24.1429 20.9535L24.0102 20.624L23.6123 20.1628L23.4133 19.7015L23.2143 19.0426L22.8164 18.2519L22.6174 17.6589L22.551 17.5271L22.4847 16.0775H22.3521L22.2857 15.9457L22.2194 12.124H22.0868L22.0204 11.9922L21.9541 9.2248L21.7551 8.76356V7.05038L22.1531 6.25969L22.4184 6.06201Z" fill="#5E5FF3"/>
<path d="M46.4948 5.79846H48.9489L49.3468 5.99614L49.9438 6.19381L50.8724 6.65505L51.403 7.0504L51.8009 7.31397L52.2652 7.70931L52.6632 8.17056L52.9948 8.50001L53.3264 8.89536L53.5254 9.22482L53.7907 9.55428L54.3213 10.6085L54.653 11.3333L54.7193 12.0582L54.9183 12.1899V23.5892L54.5866 23.9186L54.3213 23.9845H53.1938L52.7958 23.6551L52.3979 22.9961L51.9999 22.2054L51.9336 12.7171L51.7346 12.5194L51.6683 11.7946L51.3366 11.1357L50.9387 10.6085L50.6734 10.1473L50.0101 9.55428L48.8826 9.02714L48.0866 8.89536L47.755 8.76358H46.4948L46.3622 8.89536L45.7652 9.02714L44.704 9.55428L43.9744 9.94963L43.1122 10.8062L42.7805 11.4651L42.6479 12.0582L42.5152 12.1899L42.4489 22.6667L42.0509 23.4574L41.7193 23.7868L41.454 23.9845H40.7907L40.5254 23.8527L40.0611 23.3256L39.7958 23.062L39.6632 22.4031L39.5305 22.2713V12.5194L39.7295 12.2558L39.7958 11.2675L40.1938 10.4768L40.7244 9.48838L40.9897 9.15893L41.255 8.89536H41.3877L41.5203 8.6318L42.3162 7.8411L42.8468 7.37986L43.2448 7.18218L43.7091 6.85273L44.306 6.65505L45.5662 6.06203L46.3622 5.93024L46.4948 5.79846Z" fill="#5E5FF3"/>
<path d="M38.0714 28.2015H38.5357L39.1989 28.531L39.4643 28.7287L39.5969 29.4535L39.7959 29.5853L39.8622 61.0814L39.9949 61.1473L40.0612 61.4767V62.8605L39.8622 63.124L39.7296 63.717L39.1989 64.2442L39 64.3101H38.204L37.8061 64.1124L37.4081 63.6511L37.1428 63.0581V61.2791L37.3418 61.0155L37.4081 28.8605L37.8724 28.3333L38.0714 28.2015Z" fill="#5E5FF3"/>
<path d="M43.1123 29.2558H44.1735L44.5052 29.5194L44.5715 29.7829V30.7713L44.8368 30.9031L44.9031 50.0116L45.1021 50.1434V54.1628L44.9031 54.3605V57.1279L45.1021 57.2597V59.6977L44.9031 59.8953L44.8368 60.5542L44.3725 60.6201L44.1072 60.686L44.0409 60.8178L43.6429 60.8837L43.4439 60.686L42.9797 60.4884L42.847 60.1589L42.7144 59.9612V29.5853L43.1123 29.2558Z" fill="#5E5FF3"/>
<path d="M48.2194 29.783H49.148L49.4796 29.9806L49.8112 30.376L49.8776 30.5078V32.0892L50.1429 32.2209V41.2481L49.9439 41.4458L49.8776 47.1783L49.9439 47.376L50.1429 47.5078L50.2092 55.8101L50.3419 55.876L50.4082 56.1395V57.062L50.2092 57.3256L50.0766 57.6551L49.6786 57.9845L49.2806 58.1822L48.949 58.2481H48.4847L48.1531 58.0504L48.0204 57.9186L47.9541 57.062L47.7551 56.7985V30.1124L48.0204 29.8489L48.2194 29.783Z" fill="#5E5FF3"/>
<path d="M32.4999 36.6357H33.2959L33.6938 36.9651L34.0918 37.6241L34.2244 37.9535V38.9419L34.4897 39.0737V49.4186L34.2908 49.6163L34.2244 58.1163L34.0254 58.3799L33.8265 58.7752L33.3622 59.2365L32.7652 59.5L32.4336 59.5659H31.903L31.8367 59.5V55.9419L32.0356 55.8101V40.9186L31.8367 40.7868V36.9651L32.4999 36.6357Z" fill="#5E5FF3"/>
<path d="M27.1275 39.2713H28.852L29.1837 40.062V41.0504L29.449 41.1822V44.2132L29.25 44.3449L29.1837 55.7442L28.9847 56.0077L28.852 56.3372L28.4541 56.6667L28.0561 56.8643L27.1939 56.9302L27.0612 56.8643L26.9949 56.4031H26.8622L26.7959 56.2713V39.9302L26.9949 39.6667L27.1275 39.2713Z" fill="#5E5FF3"/>
<path d="M53.7908 39.5349H54.7194L55.051 39.7326L55.449 40.2597L55.6479 40.5892L55.7143 40.8527V42.5659L55.5153 42.7636L55.449 46.0582L55.25 46.19V50.0117L55.449 50.1434V54.3605L55.051 55.0853L54.5204 55.6124H53.9234L53.1939 55.3489L52.7959 55.0194V52.5155L52.9949 52.3837L53.0612 40.4574L53.3928 39.8644L53.7908 39.5349Z" fill="#5E5FF3"/>
<path d="M21.9542 41.1163H22.8828L23.2144 41.3139L23.546 41.6434L23.6124 41.8411V54.4263L23.4134 54.6899L23.2144 55.0853L22.6838 55.6124L22.0869 55.6783L22.0205 55.8101H21.7552L21.4236 55.4147L21.2246 55.2829V50.1434L21.4236 50.0116V45.6628L21.2246 45.4651V41.7752L21.6889 41.2481L21.9542 41.1163Z" fill="#5E5FF3"/>
<path d="M59.0305 41.907H59.7601L60.4234 42.2364L60.755 42.9612L60.8214 43.4225L61.0203 43.6202V49.7481L60.8214 49.8799L60.755 50.7364L60.4234 51.0659L60.1581 51.593L59.5612 52.1861H58.4336L58.3673 52.1202L58.301 51.4612L58.102 51.3295L58.0356 47.7713L57.8367 47.6395V44.4109L58.0356 44.1473L58.102 42.8295L58.4336 42.2364L59.0305 41.907Z" fill="#5E5FF3"/>
<path d="M66.1274 45.3333H68.2499L68.9795 45.7287L69.2448 45.9263V46.0581H69.3774L69.5101 46.3876V47.2442L69.0458 47.8372L68.5152 48.2325L68.1172 48.4302L67.653 48.4961H64.5356L64.3366 48.2984L63.4081 47.8372L63.1427 47.5736L62.8774 47.0465V46.5194L63.2754 46.0581L63.7397 45.7946L64.0713 45.5969L65.8621 45.531L66.1274 45.3333Z" fill="#5E5FF3"/>
<path d="M16.847 44.2791H17.5765L18.2398 44.6085L18.5714 45.0039L18.8367 45.5969V48.8915L18.6378 49.155L18.4388 49.5504L17.3776 50.6046L17.0459 50.5387L16.7143 50.2093L16.5153 49.748L16.1837 49.0232L15.9184 48.2984L15.6531 47.7713V46.0581L15.8521 45.5969L15.9847 45.1356L16.5816 44.4767L16.847 44.2791Z" fill="#5E5FF3"/>
<path d="M9.61732 45.0698H11.0102L11.3418 45.2674L12.0714 45.3333L12.2041 45.3992V45.531L12.4694 45.6628L12.7347 45.9264V46.0581L13 46.1899V46.3217H13.1326L13.2653 46.5853V47.0465L12.801 47.4419L11.8724 47.9031L11.1428 48.1008L11.0765 48.1667L10.4132 48.2326H8.88773L8.55609 47.969L8.35711 47.7713L8.02548 47.6395L7.69385 46.9806V46.2558L8.15813 45.7287L8.62242 45.3333L9.41834 45.2674L9.61732 45.0698Z" fill="#5E5FF3"/>
<path d="M64.204 34H66.6581V34.1318L66.5255 34.1977H64.1377L64.204 34Z" fill="#5E5FF3"/>
</svg>
